<svg width="200" height="63" viewBox="0 0 200 63" fill="none" xmlns="http://www.w3.org/2000/svg">
<path d="M193.007 61.9414L195.749 54.6804H197.156L199.888 61.9414H198.717L198.183 60.483H194.712L194.178 61.9414H193.007ZM195.071 59.5074H197.823L196.447 55.7177L195.071 59.5074Z" fill="white"/>
<path d="M186.095 61.9414V54.6804H187.359L191.005 60.3495V54.6804H192.083V61.9414H190.85L187.184 56.3031V61.9414H186.095Z" fill="white"/>
<path d="M183.297 61.9414V54.6804H184.386V61.9414H183.297Z" fill="white"/>
<path d="M175.604 61.9414V54.6804H176.868L180.514 60.3495V54.6804H181.592V61.9414H180.36L176.693 56.3031V61.9414H175.604Z" fill="white"/>
<path d="M167.803 61.9414L170.546 54.6804H171.953L174.684 61.9414H173.514L172.98 60.483H169.508L168.974 61.9414H167.803ZM169.868 59.5074H172.62L171.244 55.7177L169.868 59.5074Z" fill="white"/>
<path d="M164.501 62.0232C163.755 62.0232 163.128 61.8657 162.622 61.5507C162.122 61.2358 161.745 60.801 161.492 60.2464C161.239 59.6919 161.112 59.0517 161.112 58.3259C161.112 57.6002 161.239 56.9566 161.492 56.3952C161.752 55.8337 162.132 55.3955 162.632 55.0806C163.139 54.7588 163.765 54.5979 164.511 54.5979C165.052 54.5979 165.525 54.6869 165.929 54.8649C166.333 55.0361 166.658 55.2826 166.904 55.6044C167.158 55.9193 167.325 56.2959 167.408 56.7341H166.34C166.237 56.3849 166.028 56.1076 165.713 55.9022C165.398 55.6968 164.994 55.5941 164.501 55.5941C163.953 55.5941 163.512 55.7208 163.176 55.9741C162.848 56.2274 162.608 56.5595 162.457 56.9703C162.307 57.3742 162.232 57.8124 162.232 58.2849C162.232 58.771 162.31 59.2229 162.468 59.6405C162.625 60.0582 162.875 60.3936 163.217 60.647C163.56 60.9003 163.998 61.027 164.532 61.027C164.861 61.027 165.152 60.9825 165.405 60.8935C165.658 60.7976 165.871 60.6641 166.042 60.4929C166.213 60.3149 166.329 60.1095 166.391 59.8767H167.531C167.442 60.3218 167.26 60.7052 166.987 61.027C166.713 61.3488 166.367 61.5952 165.949 61.7664C165.532 61.9376 165.049 62.0232 164.501 62.0232Z" fill="white"/>
<path d="M150.894 61.9414L153.636 54.6804H155.043L157.775 61.9414H156.604L156.07 60.483H152.598L152.064 61.9414H150.894ZM152.958 59.5074H155.71L154.334 55.7177L152.958 59.5074Z" fill="white"/>
<path d="M148.876 61.9413V54.6804H149.965V61.9413H148.876ZM148.886 53.9307L149.852 52.3799H150.992L149.821 53.9307H148.886Z" fill="white"/>
<path d="M142.016 61.9414V54.6804H144.81C145.2 54.6804 145.556 54.7215 145.878 54.8037C146.199 54.879 146.48 55.0056 146.72 55.1837C146.959 55.3548 147.144 55.5876 147.274 55.882C147.404 56.1764 147.47 56.5393 147.47 56.9706C147.47 57.3609 147.401 57.6964 147.264 57.9771C147.127 58.2578 146.939 58.4906 146.699 58.6755C146.46 58.8603 146.189 59.0007 145.888 59.0966L147.439 61.9414H146.237L144.799 59.2711H143.105V61.9414H142.016ZM143.105 58.2955H144.584C144.83 58.2955 145.059 58.2784 145.272 58.2441C145.491 58.2031 145.683 58.1346 145.847 58.0387C146.011 57.936 146.138 57.7991 146.227 57.6279C146.323 57.4499 146.371 57.224 146.371 56.9501C146.377 56.6352 146.316 56.3853 146.186 56.2004C146.063 56.0087 145.878 55.8752 145.631 55.7999C145.385 55.7177 145.087 55.6766 144.738 55.6766H143.105V58.2955Z" fill="white"/>
<path d="M135.707 61.9414V54.6804H140.709V55.6766H136.796V57.8539H140.257V58.8398H136.796V60.9452H140.709V61.9414H135.707Z" fill="white"/>
<path d="M128.286 61.9414V54.6804H130.915C131.675 54.6804 132.312 54.831 132.825 55.1323C133.346 55.4267 133.736 55.8478 133.996 56.3955C134.263 56.9364 134.397 57.5766 134.397 58.316C134.397 59.0555 134.266 59.6956 134.006 60.2365C133.746 60.7774 133.356 61.1985 132.836 61.4997C132.322 61.7942 131.685 61.9414 130.925 61.9414H128.286ZM129.375 60.9452H130.874C131.435 60.9452 131.894 60.8356 132.25 60.6165C132.606 60.3906 132.87 60.0825 133.041 59.6922C133.212 59.2951 133.298 58.8364 133.298 58.316C133.298 57.8094 133.212 57.3575 133.041 56.9604C132.877 56.5633 132.616 56.2517 132.26 56.0258C131.911 55.793 131.459 55.6766 130.905 55.6766H129.375V60.9452Z" fill="white"/>
<path d="M121.426 61.9414V54.6804H124.219C124.61 54.6804 124.966 54.7215 125.287 54.8037C125.609 54.879 125.89 55.0056 126.129 55.1837C126.369 55.3548 126.554 55.5876 126.684 55.882C126.814 56.1764 126.879 56.5393 126.879 56.9706C126.879 57.3609 126.811 57.6964 126.674 57.9771C126.537 58.2578 126.349 58.4906 126.109 58.6755C125.869 58.8603 125.599 59.0007 125.298 59.0966L126.848 61.9414H125.647L124.209 59.2711H122.514V61.9414H121.426ZM122.514 58.2955H123.993C124.24 58.2955 124.469 58.2784 124.681 58.2441C124.9 58.2031 125.092 58.1346 125.257 58.0387C125.421 57.936 125.548 57.7991 125.637 57.6279C125.732 57.4499 125.78 57.224 125.78 56.9501C125.787 56.6352 125.726 56.3853 125.595 56.2004C125.472 56.0087 125.287 55.8752 125.041 55.7999C124.794 55.7177 124.497 55.6766 124.147 55.6766H122.514V58.2955Z" fill="white"/>
<path d="M113.625 61.9414L116.367 54.6804H117.774L120.506 61.9414H119.335L118.801 60.483H115.33L114.796 61.9414H113.625ZM115.689 59.5074H118.441L117.065 55.7177L115.689 59.5074Z" fill="white"/>
<path d="M109.899 62.0235C109.215 62.0235 108.653 61.8866 108.215 61.6127C107.784 61.332 107.465 60.9486 107.26 60.4625C107.055 59.9764 106.952 59.4115 106.952 58.7679V54.6804H108.041V58.7782C108.041 59.1821 108.099 59.5553 108.215 59.8976C108.332 60.24 108.527 60.5138 108.801 60.7192C109.074 60.9246 109.444 61.0273 109.91 61.0273C110.382 61.0273 110.752 60.9246 111.019 60.7192C111.286 60.5138 111.474 60.24 111.584 59.8976C111.693 59.5553 111.748 59.1821 111.748 58.7782V54.6804H112.847V58.7679C112.847 59.4047 112.744 59.9695 112.539 60.4625C112.333 60.9486 112.015 61.332 111.584 61.6127C111.152 61.8866 110.591 62.0235 109.899 62.0235Z" fill="white"/>
<path d="M102.57 62.0232C101.817 62.0232 101.187 61.8657 100.681 61.5507C100.181 61.2358 99.8042 60.801 99.5509 60.2464C99.2976 59.685 99.1709 59.0448 99.1709 58.3259C99.1709 57.785 99.2394 57.2887 99.3763 56.8368C99.5201 56.378 99.7323 55.9809 100.013 55.6454C100.294 55.31 100.643 55.0532 101.061 54.8752C101.485 54.6903 101.975 54.5979 102.529 54.5979C103.07 54.5979 103.546 54.6835 103.957 54.8547C104.368 55.019 104.706 55.2586 104.973 55.5736C105.247 55.8885 105.432 56.2685 105.528 56.7135H104.378C104.316 56.4739 104.2 56.2719 104.029 56.1076C103.864 55.9433 103.655 55.8166 103.402 55.7276C103.156 55.6386 102.875 55.5941 102.56 55.5941C102.149 55.5941 101.8 55.666 101.512 55.8098C101.225 55.9536 100.989 56.1521 100.804 56.4054C100.626 56.6519 100.496 56.9395 100.414 57.2681C100.331 57.5968 100.29 57.9459 100.29 58.3157C100.29 58.8086 100.369 59.2605 100.527 59.6713C100.684 60.0821 100.931 60.4108 101.266 60.6572C101.601 60.9037 102.04 61.027 102.581 61.027C102.998 61.027 103.358 60.9551 103.659 60.8113C103.96 60.6607 104.196 60.4484 104.368 60.1746C104.539 59.8938 104.628 59.5549 104.635 59.1578H102.385V58.2027H105.703V58.7367C105.703 59.4009 105.579 59.9794 105.333 60.4724C105.086 60.9653 104.73 61.3488 104.265 61.6226C103.799 61.8897 103.234 62.0232 102.57 62.0232Z" fill="white"/>
<path d="M92.0937 61.9414V59.2198L89.4749 54.6804H90.7381L92.6483 58.162L94.5483 54.6804H95.7807L93.1721 59.2095V61.9414H92.0937Z" fill="white"/>
<path d="M81.4287 61.9414V54.6804H82.5173V60.9452H86.3994V61.9414H81.4287Z" fill="white"/>
<path d="M75.1201 61.9414V54.6804H80.1216V55.6766H76.2087V57.8539H79.6698V58.8398H76.2087V60.9452H80.1216V61.9414H75.1201Z" fill="white"/>
<path d="M70.7539 61.9414V55.6766H68.4534V54.6804H74.1327V55.6766H71.8425V61.9414H70.7539Z" fill="white"/>
<path d="M64.4005 62.0232C63.6542 62.0232 63.0209 61.8657 62.5005 61.5507C61.987 61.2289 61.5968 60.7873 61.3297 60.2259C61.0627 59.6645 60.9292 59.0277 60.9292 58.3157C60.9292 57.5968 61.0627 56.9566 61.3297 56.3952C61.5968 55.8337 61.9904 55.3955 62.5108 55.0806C63.0311 54.7588 63.6645 54.5979 64.4108 54.5979C65.1639 54.5979 65.7972 54.7554 66.3107 55.0703C66.8242 55.3853 67.2145 55.8235 67.4815 56.3849C67.7485 56.9463 67.882 57.5865 67.882 58.3054C67.882 59.0175 67.7485 59.6542 67.4815 60.2156C67.2145 60.7771 66.8208 61.2187 66.3004 61.5405C65.7869 61.8623 65.1536 62.0232 64.4005 62.0232ZM64.4108 61.027C64.9585 61.027 65.407 60.9003 65.7561 60.647C66.1053 60.3936 66.3621 60.0616 66.5264 59.6508C66.6907 59.24 66.7729 58.7949 66.7729 58.3157C66.7729 57.9528 66.7249 57.607 66.6291 57.2784C66.5401 56.9497 66.3997 56.6588 66.208 56.4054C66.0163 56.1521 65.7698 55.9536 65.4686 55.8098C65.1673 55.666 64.8147 55.5941 64.4108 55.5941C63.8699 55.5941 63.4214 55.7208 63.0654 55.9741C62.7162 56.2274 62.456 56.5595 62.2848 56.9703C62.1137 57.3811 62.0281 57.8296 62.0281 58.3157C62.0281 58.7949 62.1103 59.24 62.2746 59.6508C62.4457 60.0616 62.7059 60.3936 63.0551 60.647C63.4111 60.9003 63.863 61.027 64.4108 61.027Z" fill="white"/>
<path d="M53.8076 61.9414V54.6804H54.8962V57.8744H58.5319V54.6804H59.6205V61.9414H58.5319V58.8706H54.8962V61.9414H53.8076Z" fill="white"/>
<g clip-path="url(#clip0_324_849)">
<path d="M195.693 0.0161355C198.097 0.211909 198.508 3.2833 196.694 5.64221C195.648 7.003 194.319 8.2001 192.936 9.23353C191.514 10.299 190.908 9.85294 189.707 8.99282C188.507 8.1327 190.933 6.31939 191.72 4.72432C192.506 3.12925 192.971 1.58553 192.971 1.58553C192.971 1.58553 193.292 -0.179638 195.696 0.0161355H195.693Z" fill="#ED6C19"/>
<path d="M165.749 5.2635C169.164 5.27955 172.56 5.25708 175.644 7.0736C181.219 10.3568 182.66 19.6223 176.957 24.5167C174.941 26.7023 173.346 27.3409 173.369 27.6105C173.391 27.8801 174.309 28.6568 174.309 28.6568C174.309 28.6568 182.772 37.7715 189.245 39.0456C191.139 39.4179 193.132 39.2992 195.08 39.3666C195.716 39.389 196.357 39.251 196.996 39.2542C198.726 39.2607 199.48 39.1291 199.91 41.7576C200.34 44.3861 199.175 44.7455 197.429 45.0472C191.489 46.0774 185.904 45.0215 180.596 42.2486C176.703 40.2138 173.291 37.319 170.721 34.3792C168.15 31.4394 166.671 29.0548 164.697 28.9136C162.723 28.7723 163.066 30.4797 163.018 32.4407C162.97 34.4016 163.901 40.8782 160.749 41.1157C157.671 41.5618 156.66 40.9616 156.564 37.8935C156.416 33.2719 156.221 28.6504 156.224 24.0289C156.23 18.544 156.433 13.0623 156.532 7.57748C156.554 6.42209 157.055 5.80268 158.246 5.73207C160.749 5.58765 163.249 5.41755 165.753 5.25708L165.749 5.2635ZM170.83 21.4036C174.781 19.9176 175.554 15.3442 172.335 12.6612C170.438 11.0789 166.95 10.9377 165.769 11.111C164.588 11.2843 163.098 11.4255 162.713 11.8267C162.328 12.2279 162.585 21.8433 163.175 22.6039C163.766 23.3645 169.267 21.9909 170.83 21.4036Z" fill="#ED6C19"/>
<path d="M76.1301 24.9916C76.1398 18.5439 77.9659 12.844 82.6516 8.25454C86.5029 4.48671 93.1431 3.99246 97.126 7.28209C99.8989 9.57039 101.215 12.8247 101.934 16.2203C103.455 23.4061 102.422 30.2325 98.3616 36.4523C97.3635 37.98 97.2447 39.3247 98.2076 40.8588C99.0516 42.2003 99.8155 43.5964 100.566 44.9925C101.33 46.4111 100.897 47.2423 98.8494 48.6256C97.6331 49.4472 96.5258 49.4472 95.685 48.1762C94.6323 46.5876 93.6085 44.9733 92.7099 43.298C92.0391 42.0463 91.2624 41.4622 89.7155 41.4782C82.8667 41.5585 78.0044 37.3221 76.6597 30.1908C76.3387 28.4834 76.297 26.7246 76.1301 24.9916ZM94.8409 29.1381C95.2132 29.106 95.5438 27.2927 95.7299 26.5192C96.8372 21.9041 96.8436 17.4013 94.061 13.2805C92.5045 10.9761 89.6706 10.5525 87.5459 12.3208C86.6569 13.0622 85.8353 13.9352 85.1549 14.8723C82.2151 18.929 81.493 23.4222 82.5682 28.278C83.1972 31.1183 84.7153 33.3007 87.164 34.8284C87.7642 35.2006 88.6404 35.0659 88.8393 34.9439C89.0383 34.8219 88.3676 31.7152 88.3066 30.6208C88.2488 29.6035 88.0306 28.0854 88.5794 27.6489C89.616 26.8241 91.6347 26.1919 92.4884 26.2689C93.3421 26.3459 94.4718 29.167 94.8441 29.1381H94.8409Z" fill="#ED6C19"/>
<path d="M73.5338 13.2773C73.3958 20.3989 72.8598 27.4789 70.1736 34.1673C69.3808 36.1346 68.0971 37.9608 66.7876 39.6618C63.1835 44.3539 53.9661 43.3269 51.1836 37.9287C49.2515 34.1833 48.2758 30.2325 47.7559 26.1277C47.0113 20.2385 47.6019 14.3845 48.3785 8.54022C48.6706 6.35141 49.0654 6.02726 51.2574 6.40597C52.3004 6.5857 53.3339 6.83282 54.3705 7.05427C55.5483 7.30781 55.9752 8.11016 55.7056 9.18852C54.5695 13.7651 54.3416 18.4091 54.4732 23.0948C54.5759 26.6829 55.3686 30.1234 56.8096 33.4002C57.3809 34.6968 58.2153 35.8233 59.8714 35.7912C61.4697 35.7591 62.1276 34.5877 62.7213 33.3713C65.138 28.4256 65.8986 23.0852 66.3191 17.6966C66.5855 14.3107 66.6079 10.9023 66.6561 7.50358C66.6753 6.13317 67.314 5.57153 68.5881 5.55869C74.1821 5.49771 73.4471 5.7673 73.5242 10.0871C73.5434 11.1527 73.5242 12.215 73.5242 13.2805L73.5338 13.2773Z" fill="#ED6C19"/>
<path d="M105.371 18.8391C105.371 16.4738 106.071 12.1379 106.536 8.56904C106.799 6.55996 107.98 5.98547 110.384 6.41232C112.788 6.83917 113.414 7.2917 112.942 9.79503C112.137 14.0699 111.479 18.3545 111.925 22.7257C112.255 25.9672 112.891 29.0996 114.759 31.8757C116.309 34.18 118.132 34.4239 120.211 32.5785C122.91 30.1811 123.495 26.8851 124.13 23.6019C125.038 18.9129 124.875 14.2144 124.274 9.50939C124.13 8.37006 124.541 7.62548 125.783 7.30775C129.387 6.38986 130.141 6.76215 130.668 10.4401C131.756 18.0271 131.197 25.4633 127.943 32.5111C126.21 36.2629 123.623 39.2541 119.249 39.9441C115.038 40.6052 111.745 38.869 109.383 35.4734C107.12 32.2191 106.305 28.4288 105.849 24.5679C105.644 22.8316 105.378 21.2076 105.378 18.8423L105.371 18.8391Z" fill="#ED6C19"/>
<path d="M135.411 8.28996C135.421 5.82515 135.838 5.46569 138.322 5.44644C142.433 5.41434 146.548 5.41755 150.659 5.33411C152.196 5.30201 152.694 5.82836 152.674 8.643C152.655 11.4576 151.772 11.095 150.585 11.1303C149.397 11.1656 142.241 10.9859 142.096 11.2715C141.952 11.5571 142.086 12.8794 142.074 14.2241C142.064 15.341 142.067 16.4579 142.099 17.5748C142.119 18.2038 142.07 19.4073 142.16 19.7283C142.25 20.0492 143.672 19.8374 144.381 19.8342C145.09 19.831 146.84 19.8085 148.069 19.8502C149.089 19.8855 149.747 19.5453 149.917 22.8574C150.087 26.1695 147.831 25.8486 147.831 25.8486C147.831 25.8486 142.379 25.7138 142.042 26.0219C141.705 26.33 141.65 35.1462 141.82 35.4415C141.99 35.7367 151.557 35.7111 151.557 35.7111C151.557 35.7111 153.403 35.1237 153.403 38.8948C153.403 41.9501 153.159 41.5875 149.375 41.5329C145.427 41.4751 141.483 41.3403 137.539 41.2088C135.536 41.1414 135.029 40.5893 135.023 38.5835C135.013 35.6051 135.023 32.6268 135.023 29.6485C135.148 29.6485 135.382 15.4148 135.408 8.29638L135.411 8.28996Z" fill="#ED6C19"/>
<path d="M194.814 32.1711C194.907 34.4948 194.647 34.7772 192.246 34.8446C191.794 34.8574 192.449 34.8735 190.886 34.8735C189.323 34.8735 188.687 34.3022 188.639 32.8515C188.456 27.28 188.241 14.7313 188.241 14.7313C188.241 14.7313 187.93 12.5264 190.199 12.4045C192.468 12.2825 191.126 12.2793 192.654 12.2793C194.182 12.2793 194.32 14.436 194.32 14.436C194.32 14.436 194.596 26.8339 194.811 32.1679L194.814 32.1711Z" fill="#ED6C19"/>
<path d="M43.0316 5.44325C41.7157 5.37906 37.6976 4.97467 37.1488 6.43495C36.9113 7.06078 36.693 7.72192 36.6385 8.38306C36.125 14.5708 34.1448 20.3413 31.6479 25.9674C30.1266 29.3982 29.5297 30.576 26.9108 33.6121C25.6559 35.066 22.6359 36.0384 20.9381 35.5859C19.3141 35.1526 18.3738 33.4324 18.4733 31.8759C18.6113 29.6838 18.8071 28.4097 19.2307 26.2562C20.1999 21.3394 21.6153 16.4996 21.3938 11.4031C21.2302 7.64168 18.7589 5.17366 15.0232 5.10947C11.1494 5.04528 7.88549 6.49272 5.23452 9.17899C3.4501 10.9923 0.561642 14.6927 0.561642 14.6927C0.561642 14.6927 -0.985287 16.1723 1.06552 17.6775C3.11632 19.1827 4.16579 17.3501 5.533 15.8706C6.89699 14.391 8.66858 12.2793 11.0211 11.4416C12.9499 10.7548 14.2658 11.509 14.0443 13.4828C13.656 16.9201 13.0141 20.3284 12.4204 23.74C11.7624 27.5271 11.2008 30.1717 11.7175 34.1128C12.1797 37.6335 14.5675 40.3487 17.8025 40.9809C22.9664 41.9919 27.5174 41.1767 30.7556 37.8421C33.9939 34.5076 34.8284 31.709 35.1718 31.6608C35.5601 32.0813 33.9907 37.8164 33.1113 40.7498C32.232 43.6832 29.6003 51.6714 28.9969 53.3146C28.3935 54.9578 26.7856 56.8803 30.4636 58.2539C34.1416 59.6275 34.5042 57.1049 35.1654 55.2756C35.8265 53.4462 37.8966 47.9614 39.8094 40.7145C41.7222 33.4677 43.9078 19.1731 44.2383 15.4373C44.5689 11.7016 44.3731 8.34775 44.3731 8.34775C44.3731 8.34775 44.3571 5.51385 43.038 5.44646L43.0316 5.44325Z" fill="#ED6C19"/>
</g>
<defs>
<clipPath id="clip0_324_849">
<rect width="200" height="58.6421" fill="white"/>
</clipPath>
</defs>
</svg>
