<svg width="146" height="45" viewBox="0 0 146 45" fill="none" xmlns="http://www.w3.org/2000/svg">
<path d="M140.033 44.9404L142.022 39.6724H143.043L145.025 44.9404H144.176L143.788 43.8823H141.27L140.882 44.9404H140.033ZM141.53 43.1745H143.527L142.529 40.4249L141.53 43.1745Z" fill="#666666"/>
<path d="M135.018 44.9404V39.6724H135.935L138.58 43.7855V39.6724H139.362V44.9404H138.468L135.808 40.8497V44.9404H135.018Z" fill="#666666"/>
<path d="M132.988 44.9404V39.6724H133.778V44.9404H132.988Z" fill="#666666"/>
<path d="M127.407 44.9404V39.6724H128.323L130.968 43.7855V39.6724H131.751V44.9404H130.857L128.196 40.8497V44.9404H127.407Z" fill="#666666"/>
<path d="M121.747 44.9404L123.736 39.6724H124.757L126.739 44.9404H125.89L125.502 43.8823H122.984L122.596 44.9404H121.747ZM123.245 43.1745H125.241L124.243 40.4249L123.245 43.1745Z" fill="#666666"/>
<path d="M119.351 44.9998C118.81 44.9998 118.355 44.8856 117.987 44.6571C117.625 44.4285 117.352 44.1131 117.168 43.7107C116.984 43.3084 116.892 42.8439 116.892 42.3174C116.892 41.7908 116.984 41.3239 117.168 40.9165C117.357 40.5092 117.632 40.1913 117.995 39.9628C118.362 39.7293 118.817 39.6125 119.358 39.6125C119.751 39.6125 120.094 39.6771 120.387 39.8063C120.68 39.9305 120.916 40.1093 121.095 40.3428C121.278 40.5713 121.4 40.8445 121.46 41.1624H120.685C120.61 40.9091 120.459 40.7079 120.23 40.5589C120.002 40.4098 119.709 40.3353 119.351 40.3353C118.954 40.3353 118.633 40.4272 118.39 40.611C118.151 40.7948 117.977 41.0357 117.868 41.3338C117.759 41.6269 117.704 41.9448 117.704 42.2876C117.704 42.6402 117.761 42.9681 117.876 43.2711C117.99 43.5741 118.171 43.8175 118.42 44.0013C118.668 44.1851 118.986 44.277 119.373 44.277C119.612 44.277 119.823 44.2447 120.007 44.1802C120.191 44.1106 120.345 44.0138 120.469 43.8896C120.593 43.7604 120.677 43.6114 120.722 43.4425H121.549C121.485 43.7654 121.353 44.0436 121.154 44.277C120.956 44.5105 120.705 44.6893 120.402 44.8135C120.099 44.9377 119.748 44.9998 119.351 44.9998Z" fill="#666666"/>
<path d="M109.478 44.9404L111.468 39.6724H112.489L114.471 44.9404H113.621L113.234 43.8823H110.715L110.328 44.9404H109.478ZM110.976 43.1745H112.973L111.974 40.4249L110.976 43.1745Z" fill="#666666"/>
<path d="M108.014 44.9403V39.6723H108.804V44.9403H108.014ZM108.022 39.1283L108.722 38.0032H109.549L108.7 39.1283H108.022Z" fill="#666666"/>
<path d="M103.037 44.9404V39.6724H105.064C105.347 39.6724 105.606 39.7022 105.839 39.7618C106.072 39.8164 106.276 39.9083 106.45 40.0375C106.624 40.1617 106.758 40.3306 106.852 40.5442C106.947 40.7578 106.994 41.021 106.994 41.334C106.994 41.6171 106.944 41.8605 106.845 42.0642C106.746 42.2679 106.609 42.4368 106.435 42.5709C106.261 42.705 106.065 42.8069 105.846 42.8764L106.972 44.9404H106.1L105.057 43.0031H103.827V44.9404H103.037ZM103.827 42.2952H104.9C105.079 42.2952 105.245 42.2828 105.399 42.2579C105.558 42.2281 105.697 42.1785 105.817 42.1089C105.936 42.0344 106.028 41.9351 106.092 41.8109C106.162 41.6817 106.197 41.5178 106.197 41.3191C106.202 41.0906 106.157 40.9093 106.063 40.7751C105.973 40.6361 105.839 40.5392 105.66 40.4845C105.481 40.4249 105.265 40.3951 105.012 40.3951H103.827V42.2952Z" fill="#666666"/>
<path d="M98.46 44.9404V39.6724H102.089V40.3951H99.2498V41.9748H101.761V42.6901H99.2498V44.2176H102.089V44.9404H98.46Z" fill="#666666"/>
<path d="M93.0756 44.9404V39.6724H94.9831C95.5345 39.6724 95.9965 39.7816 96.369 40.0002C96.7465 40.2138 97.0297 40.5193 97.2185 40.9167C97.4122 41.3092 97.5091 41.7736 97.5091 42.3101C97.5091 42.8466 97.4147 43.3111 97.2259 43.7035C97.0371 44.0959 96.754 44.4014 96.3765 44.62C96.0039 44.8336 95.5419 44.9404 94.9905 44.9404H93.0756ZM93.8654 44.2176H94.9533C95.3606 44.2176 95.6934 44.1381 95.9517 43.9792C96.2101 43.8153 96.4013 43.5917 96.5255 43.3086C96.6497 43.0205 96.7118 42.6876 96.7118 42.3101C96.7118 41.9425 96.6497 41.6147 96.5255 41.3265C96.4063 41.0384 96.2175 40.8124 95.9592 40.6485C95.7059 40.4796 95.378 40.3951 94.9756 40.3951H93.8654V44.2176Z" fill="#666666"/>
<path d="M88.0983 44.9404V39.6724H90.125C90.4082 39.6724 90.6665 39.7022 90.8999 39.7618C91.1334 39.8164 91.3371 39.9083 91.5109 40.0375C91.6848 40.1617 91.8189 40.3306 91.9133 40.5442C92.0077 40.7578 92.0549 41.021 92.0549 41.334C92.0549 41.6171 92.0052 41.8605 91.9059 42.0642C91.8065 42.2679 91.6699 42.4368 91.496 42.5709C91.3222 42.705 91.126 42.8069 90.9074 42.8764L92.0325 44.9404H91.1607L90.1176 43.0031H88.8881V44.9404H88.0983ZM88.8881 42.2952H89.9611C90.1399 42.2952 90.3063 42.2828 90.4603 42.2579C90.6193 42.2281 90.7584 42.1785 90.8776 42.1089C90.9968 42.0344 91.0887 41.9351 91.1533 41.8109C91.2228 41.6817 91.2576 41.5178 91.2576 41.3191C91.2626 41.0906 91.2179 40.9093 91.1235 40.7751C91.0341 40.6361 90.8999 40.5392 90.7211 40.4845C90.5423 40.4249 90.3262 40.3951 90.0728 40.3951H88.8881V42.2952Z" fill="#666666"/>
<path d="M82.4385 44.9404L84.428 39.6724H85.4488L87.4308 44.9404H86.5814L86.1939 43.8823H83.6754L83.2879 44.9404H82.4385ZM83.9362 43.1745H85.9331L84.9346 40.4249L83.9362 43.1745Z" fill="#666666"/>
<path d="M79.7357 45C79.2389 45 78.8316 44.9007 78.5137 44.702C78.2007 44.4983 77.9697 44.2201 77.8207 43.8674C77.6717 43.5147 77.5972 43.1049 77.5972 42.638V39.6724H78.387V42.6454C78.387 42.9385 78.4292 43.2092 78.5137 43.4576C78.5981 43.706 78.7397 43.9047 78.9384 44.0537C79.1371 44.2027 79.4053 44.2772 79.7431 44.2772C80.0859 44.2772 80.3541 44.2027 80.5479 44.0537C80.7416 43.9047 80.8782 43.706 80.9577 43.4576C81.0372 43.2092 81.0769 42.9385 81.0769 42.6454V39.6724H81.8742V42.638C81.8742 43.0999 81.7997 43.5098 81.6507 43.8674C81.5016 44.2201 81.2706 44.4983 80.9577 44.702C80.6447 44.9007 80.2374 45 79.7357 45Z" fill="#666666"/>
<path d="M74.4183 44.9998C73.8718 44.9998 73.4148 44.8856 73.0472 44.6571C72.6846 44.4285 72.4114 44.1131 72.2276 43.7107C72.0438 43.3034 71.9519 42.8389 71.9519 42.3174C71.9519 41.9249 72.0016 41.5648 72.1009 41.2369C72.2052 40.9041 72.3592 40.616 72.5629 40.3726C72.7666 40.1292 73.0199 39.9429 73.3229 39.8137C73.6309 39.6796 73.9861 39.6125 74.3885 39.6125C74.7809 39.6125 75.1261 39.6746 75.4242 39.7988C75.7222 39.9181 75.9681 40.0919 76.1619 40.3204C76.3606 40.5489 76.4947 40.8246 76.5642 41.1475H75.7297C75.685 40.9736 75.6005 40.8271 75.4764 40.7079C75.3571 40.5887 75.2056 40.4968 75.0218 40.4322C74.843 40.3676 74.6393 40.3353 74.4108 40.3353C74.1128 40.3353 73.8594 40.3875 73.6508 40.4918C73.4422 40.5961 73.2708 40.7402 73.1367 40.924C73.0075 41.1028 72.9131 41.3114 72.8535 41.5499C72.7939 41.7883 72.7641 42.0417 72.7641 42.3099C72.7641 42.6676 72.8212 42.9954 72.9355 43.2935C73.0497 43.5915 73.2286 43.83 73.472 44.0088C73.7154 44.1876 74.0333 44.277 74.4257 44.277C74.7287 44.277 74.9895 44.2249 75.2081 44.1206C75.4267 44.0113 75.5981 43.8573 75.7222 43.6586C75.8464 43.4549 75.911 43.209 75.916 42.9209H74.2841V42.2279H76.6909V42.6154C76.6909 43.0973 76.6015 43.517 76.4227 43.8747C76.2438 44.2323 75.9855 44.5105 75.6477 44.7092C75.3099 44.9029 74.9001 44.9998 74.4183 44.9998Z" fill="#666666"/>
<path d="M66.8171 44.9404V42.9658L64.917 39.6724H65.8335L67.2194 42.1983L68.5979 39.6724H69.4921L67.5994 42.9584V44.9404H66.8171Z" fill="#666666"/>
<path d="M59.0791 44.9404V39.6724H59.8689V44.2176H62.6855V44.9404H59.0791Z" fill="#666666"/>
<path d="M54.502 44.9404V39.6724H58.1307V40.3951H55.2918V41.9748H57.8029V42.6901H55.2918V44.2176H58.1307V44.9404H54.502Z" fill="#666666"/>
<path d="M51.3344 44.9404V40.3951H49.6653V39.6724H53.7858V40.3951H52.1242V44.9404H51.3344Z" fill="#666666"/>
<path d="M46.7248 44.9998C46.1834 44.9998 45.7239 44.8856 45.3463 44.6571C44.9738 44.4236 44.6906 44.1032 44.4969 43.6958C44.3032 43.2885 44.2063 42.8265 44.2063 42.3099C44.2063 41.7883 44.3032 41.3239 44.4969 40.9165C44.6906 40.5092 44.9763 40.1913 45.3538 39.9628C45.7313 39.7293 46.1908 39.6125 46.7323 39.6125C47.2787 39.6125 47.7382 39.7268 48.1108 39.9553C48.4833 40.1838 48.7665 40.5017 48.9602 40.9091C49.1539 41.3164 49.2508 41.7809 49.2508 42.3025C49.2508 42.8191 49.1539 43.2811 48.9602 43.6884C48.7665 44.0957 48.4808 44.4161 48.1033 44.6496C47.7307 44.8831 47.2712 44.9998 46.7248 44.9998ZM46.7323 44.277C47.1297 44.277 47.455 44.1851 47.7084 44.0013C47.9617 43.8175 48.148 43.5766 48.2672 43.2786C48.3865 42.9805 48.4461 42.6576 48.4461 42.3099C48.4461 42.0466 48.4113 41.7958 48.3417 41.5573C48.2772 41.3189 48.1753 41.1078 48.0362 40.924C47.8972 40.7402 47.7183 40.5961 47.4998 40.4918C47.2812 40.3875 47.0254 40.3353 46.7323 40.3353C46.3398 40.3353 46.0145 40.4272 45.7562 40.611C45.5028 40.7948 45.3141 41.0357 45.1899 41.3338C45.0657 41.6318 45.0036 41.9572 45.0036 42.3099C45.0036 42.6576 45.0632 42.9805 45.1824 43.2786C45.3066 43.5766 45.4954 43.8175 45.7487 44.0013C46.007 44.1851 46.3349 44.277 46.7323 44.277Z" fill="#666666"/>
<path d="M39.0393 44.9404V39.6724H39.8291V41.9897H42.4669V39.6724H43.2567V44.9404H42.4669V42.7125H39.8291V44.9404H39.0393Z" fill="#666666"/>
<g clip-path="url(#clip0_428_219)">
<path d="M141.981 0.0117307C143.725 0.15377 144.023 2.38216 142.708 4.09362C141.949 5.08091 140.985 5.94945 139.981 6.69923C138.95 7.4723 138.51 7.14864 137.639 6.52459C136.768 5.90055 138.528 4.58494 139.099 3.42767C139.669 2.27039 140.007 1.15038 140.007 1.15038C140.007 1.15038 140.24 -0.130309 141.984 0.0117307H141.981Z" fill="#ED6C19"/>
<path d="M120.256 3.81887C122.734 3.83051 125.197 3.81421 127.435 5.13215C131.48 7.51422 132.525 14.2367 128.387 17.7876C126.925 19.3734 125.768 19.8367 125.784 20.0323C125.8 20.2279 126.466 20.7914 126.466 20.7914C126.466 20.7914 132.607 27.4044 137.303 28.3288C138.677 28.5989 140.123 28.5128 141.537 28.5617C141.998 28.578 142.463 28.4779 142.927 28.4802C144.182 28.4849 144.729 28.3894 145.041 30.2964C145.353 32.2035 144.508 32.4643 143.241 32.6832C138.931 33.4306 134.879 32.6645 131.028 30.6527C128.204 29.1764 125.728 27.0761 123.863 24.9432C121.998 22.8103 120.925 21.0802 119.493 20.9777C118.06 20.8753 118.31 22.114 118.275 23.5368C118.24 24.9595 118.915 29.6584 116.628 29.8307C114.395 30.1544 113.662 29.719 113.592 27.4929C113.485 24.1398 113.343 20.7868 113.345 17.4337C113.35 13.4543 113.497 9.47716 113.569 5.49773C113.585 4.65946 113.948 4.21006 114.812 4.15883C116.628 4.05405 118.442 3.93063 120.259 3.81421L120.256 3.81887ZM123.942 15.529C126.809 14.4509 127.37 11.1327 125.034 9.1861C123.658 8.03814 121.127 7.93568 120.27 8.06142C119.413 8.18716 118.333 8.28962 118.054 8.58068C117.774 8.87175 117.96 15.848 118.389 16.3998C118.817 16.9517 122.808 15.9551 123.942 15.529Z" fill="#ED6C19"/>
<path d="M55.2347 18.1321C55.2417 13.4541 56.5667 9.3187 59.9663 5.98892C62.7605 3.25524 67.5782 2.89665 70.4679 5.28338C72.4797 6.94361 73.4344 9.30473 73.956 11.7683C75.0597 16.9818 74.31 21.9346 71.3644 26.4473C70.6402 27.5556 70.5541 28.5313 71.2526 29.6443C71.865 30.6176 72.4192 31.6306 72.9641 32.6435C73.5183 33.6727 73.2039 34.2757 71.7183 35.2793C70.8358 35.8754 70.0325 35.8754 69.4224 34.9534C68.6586 33.8007 67.9158 32.6295 67.2639 31.414C66.7772 30.5059 66.2137 30.0821 65.0914 30.0937C60.1223 30.1519 56.5946 27.0783 55.6189 21.9043C55.3861 20.6656 55.3558 19.3895 55.2347 18.1321ZM68.81 21.1406C69.0801 21.1173 69.3199 19.8017 69.455 19.2405C70.2583 15.8921 70.263 12.6252 68.2442 9.63538C67.1148 7.9635 65.0588 7.65614 63.5173 8.93915C62.8723 9.47704 62.2762 10.1104 61.7825 10.7903C59.6496 13.7336 59.1257 16.9935 59.9057 20.5165C60.3621 22.5773 61.4635 24.1607 63.2402 25.269C63.6756 25.5392 64.3113 25.4414 64.4557 25.3529C64.6 25.2644 64.1134 23.0104 64.0691 22.2164C64.0272 21.4782 63.8689 20.3768 64.2671 20.0602C65.0192 19.4617 66.4838 19.003 67.1032 19.0589C67.7226 19.1148 68.5422 21.1615 68.8123 21.1406H68.81Z" fill="#ED6C19"/>
<path d="M53.3511 9.63326C53.2509 14.8002 52.8621 19.9369 50.9131 24.7896C50.338 26.217 49.4066 27.5419 48.4565 28.776C45.8416 32.1803 39.1541 31.4352 37.1353 27.5186C35.7335 24.8012 35.0256 21.9348 34.6484 18.9566C34.1082 14.6838 34.5366 10.4366 35.1001 6.19636C35.312 4.60832 35.5984 4.37313 37.1888 4.6479C37.9456 4.7783 38.6954 4.95759 39.4475 5.11826C40.302 5.30221 40.6117 5.88434 40.4161 6.66672C39.5919 9.98719 39.4265 13.3566 39.522 16.7562C39.5965 19.3595 40.1716 21.8556 41.2172 24.2331C41.6316 25.1738 42.237 25.9911 43.4386 25.9678C44.5982 25.9445 45.0755 25.0946 45.5063 24.2121C47.2597 20.6239 47.8115 16.7492 48.1166 12.8396C48.3098 10.383 48.3261 7.91015 48.361 5.44425C48.375 4.44998 48.8384 4.04249 49.7628 4.03317C53.8214 3.98893 53.2882 4.18453 53.3441 7.31871C53.358 8.09178 53.3441 8.86252 53.3441 9.63558L53.3511 9.63326Z" fill="#ED6C19"/>
<path d="M76.45 13.6686C76.45 11.9525 76.9576 8.80663 77.2952 6.21732C77.4861 4.75967 78.343 4.34287 80.0871 4.65256C81.8312 4.96225 82.2852 5.29057 81.9429 7.10682C81.3585 10.2084 80.8811 13.317 81.2048 16.4884C81.4446 18.8402 81.9057 21.1128 83.2609 23.127C84.3855 24.7989 85.7081 24.9759 87.217 23.637C89.1753 21.8976 89.5991 19.5062 90.0601 17.1241C90.7191 13.7221 90.6004 10.3132 90.1649 6.89958C90.0601 6.07295 90.3582 5.53274 91.2593 5.30221C93.8742 4.63626 94.4214 4.90637 94.8033 7.57485C95.5927 13.0795 95.1875 18.4746 92.8264 23.5881C91.569 26.3101 89.6922 28.4803 86.5185 28.9809C83.4634 29.4606 81.0744 28.2009 79.3606 25.7373C77.719 23.3762 77.1275 20.6262 76.7969 17.825C76.6479 16.5653 76.4546 15.387 76.4546 13.6709L76.45 13.6686Z" fill="#ED6C19"/>
<path d="M98.2448 6.01468C98.2518 4.22638 98.5545 3.96559 100.357 3.95161C103.34 3.92833 106.325 3.93066 109.308 3.87012C110.423 3.84683 110.784 4.22871 110.77 6.27082C110.756 8.31293 110.116 8.04981 109.254 8.07542C108.392 8.10103 103.2 7.97063 103.095 8.17787C102.99 8.38511 103.088 9.34446 103.079 10.3201C103.072 11.1304 103.074 11.9408 103.097 12.7511C103.111 13.2075 103.076 14.0807 103.142 14.3135C103.207 14.5464 104.238 14.3927 104.753 14.3904C105.268 14.388 106.537 14.3717 107.428 14.402C108.169 14.4276 108.646 14.1808 108.77 16.5838C108.893 18.9869 107.256 18.754 107.256 18.754C107.256 18.754 103.3 18.6562 103.056 18.8797C102.811 19.1033 102.771 25.4997 102.895 25.7139C103.018 25.9282 109.96 25.9095 109.96 25.9095C109.96 25.9095 111.298 25.4834 111.298 28.2194C111.298 30.4362 111.122 30.173 108.376 30.1335C105.512 30.0916 102.65 29.9938 99.7886 29.8983C98.3356 29.8494 97.9677 29.4489 97.9631 27.9936C97.9561 25.8327 97.9631 23.6718 97.9631 21.511C98.0539 21.511 98.2239 11.184 98.2425 6.01934L98.2448 6.01468Z" fill="#ED6C19"/>
<path d="M141.343 23.3411C141.411 25.0269 141.222 25.2318 139.481 25.2807C139.152 25.2901 139.627 25.3017 138.493 25.3017C137.359 25.3017 136.898 24.8872 136.863 23.8347C136.731 19.7924 136.575 10.6879 136.575 10.6879C136.575 10.6879 136.349 9.08823 137.995 8.99975C139.641 8.91126 138.668 8.90894 139.776 8.90894C140.885 8.90894 140.985 10.4737 140.985 10.4737C140.985 10.4737 141.185 19.4688 141.341 23.3388L141.343 23.3411Z" fill="#ED6C19"/>
<path d="M31.2208 3.94922C30.2661 3.90265 27.3508 3.60925 26.9526 4.66873C26.7803 5.12279 26.6219 5.60246 26.5823 6.08214C26.2098 10.5715 24.7731 14.7582 22.9615 18.8401C21.8578 21.3293 21.4247 22.1838 19.5246 24.3866C18.6142 25.4414 16.423 26.147 15.1912 25.8187C14.013 25.5043 13.3308 24.2562 13.4029 23.1269C13.5031 21.5365 13.6451 20.6121 13.9525 19.0497C14.6557 15.4824 15.6826 11.971 15.5219 8.27327C15.4031 5.54425 13.6102 3.75362 10.8998 3.70705C8.08926 3.66048 5.72116 4.71064 3.7978 6.65961C2.50315 7.97522 0.407482 10.66 0.407482 10.66C0.407482 10.66 -0.714864 11.7335 0.773059 12.8255C2.26098 13.9176 3.02241 12.588 4.01436 11.5146C5.00397 10.4411 6.28932 8.90896 7.99612 8.30122C9.39556 7.80291 10.3503 8.35012 10.1896 9.78215C9.90783 12.276 9.44213 14.7489 9.01135 17.2241C8.53401 19.9717 8.12652 21.8904 8.50141 24.7499C8.83671 27.3042 10.5691 29.2742 12.9163 29.7329C16.6629 30.4664 19.9647 29.8749 22.3142 27.4556C24.6636 25.0363 25.2691 23.0058 25.5182 22.9709C25.8 23.2759 24.6613 27.437 24.0233 29.5652C23.3853 31.6935 21.4759 37.4892 21.0381 38.6814C20.6004 39.8736 19.4338 41.2684 22.1023 42.265C24.7708 43.2616 25.0339 41.4314 25.5136 40.1041C25.9932 38.7769 27.4951 34.7974 28.8829 29.5396C30.2707 24.2818 31.8564 13.9106 32.0963 11.2002C32.3361 8.48983 32.1941 6.05653 32.1941 6.05653C32.1941 6.05653 32.1824 4.00044 31.2254 3.95155L31.2208 3.94922Z" fill="#ED6C19"/>
</g>
<defs>
<clipPath id="clip0_428_219">
<rect width="145.106" height="42.5467" fill="white"/>
</clipPath>
</defs>
</svg>
